<?xml version="1.0" encoding="utf-8" standalone="no"?>
<!DOCTYPE svg PUBLIC "-//W3C//DTD SVG 1.1//EN"
  "http://www.w3.org/Graphics/SVG/1.1/DTD/svg11.dtd">
<svg xmlns:xlink="http://www.w3.org/1999/xlink" width="460.8pt" height="345.6pt" viewBox="0 0 460.8 345.6" xmlns="http://www.w3.org/2000/svg" version="1.1">
 <metadata>
  <rdf:RDF xmlns:dc="http://purl.org/dc/elements/1.1/" xmlns:cc="http://creativecommons.org/ns#" xmlns:rdf="http://www.w3.org/1999/02/22-rdf-syntax-ns#">
   <cc:Work>
    <dc:type rdf:resource="http://purl.org/dc/dcmitype/StillImage"/>
    <dc:date>2023-03-03T10:45:15.246033</dc:date>
    <dc:format>image/svg+xml</dc:format>
    <dc:creator>
     <cc:Agent>
      <dc:title>Matplotlib v3.7.0, https://matplotlib.org/</dc:title>
     </cc:Agent>
    </dc:creator>
   </cc:Work>
  </rdf:RDF>
 </metadata>
 <defs>
  <style type="text/css">*{stroke-linejoin: round; stroke-linecap: butt}</style>
 </defs>
 <g id="figure_1">
  <g id="patch_1">
   <path d="M 0 345.6 
L 460.8 345.6 
L 460.8 0 
L 0 0 
z
" style="fill: #2596be"/>
  </g>
  <g id="axes_1">
   <g id="PolyCollection_1">
    <path d="M 0 345.6 
L 0 345.6 
L 0.461261 345.6 
L 0.922523 345.6 
L 1.383784 345.6 
L 1.845045 345.6 
L 2.306306 345.6 
L 2.767568 345.6 
L 3.228829 345.6 
L 3.69009 345.6 
L 4.151351 345.6 
L 4.612613 345.6 
L 5.073874 345.6 
L 5.535135 345.6 
L 5.996396 345.6 
L 6.457658 345.6 
L 6.918919 345.6 
L 7.38018 345.6 
L 7.841441 345.6 
L 8.302703 345.6 
L 8.763964 345.6 
L 9.225225 345.6 
L 9.686486 345.6 
L 10.147748 345.6 
L 10.609009 345.6 
L 11.07027 345.6 
L 11.531532 345.6 
L 11.992793 345.6 
L 12.454054 345.6 
L 12.915315 345.6 
L 13.376577 345.6 
L 13.837838 345.6 
L 14.299099 345.6 
L 14.76036 345.6 
L 15.221622 345.6 
L 15.682883 345.6 
L 16.144144 345.6 
L 16.605405 345.6 
L 17.066667 345.6 
L 17.527928 345.6 
L 17.989189 345.6 
L 18.45045 345.6 
L 18.911712 345.6 
L 19.372973 345.6 
L 19.834234 345.6 
L 20.295495 345.6 
L 20.756757 345.6 
L 21.218018 345.6 
L 21.679279 345.6 
L 22.140541 345.6 
L 22.601802 345.6 
L 23.063063 345.6 
L 23.524324 345.6 
L 23.985586 345.6 
L 24.446847 345.6 
L 24.908108 345.6 
L 25.369369 345.6 
L 25.830631 345.6 
L 26.291892 345.6 
L 26.753153 345.6 
L 27.214414 345.6 
L 27.675676 345.6 
L 28.136937 345.6 
L 28.598198 345.6 
L 29.059459 345.6 
L 29.520721 345.6 
L 29.981982 345.6 
L 30.443243 345.6 
L 30.904505 345.6 
L 31.365766 345.6 
L 31.827027 345.6 
L 32.288288 345.6 
L 32.74955 345.6 
L 33.210811 345.6 
L 33.672072 345.6 
L 34.133333 345.6 
L 34.594595 345.6 
L 35.055856 345.6 
L 35.517117 345.6 
L 35.978378 345.6 
L 36.43964 345.6 
L 36.900901 345.6 
L 37.362162 345.6 
L 37.823423 345.6 
L 38.284685 345.6 
L 38.745946 345.6 
L 39.207207 345.6 
L 39.668468 345.6 
L 40.12973 345.6 
L 40.590991 345.6 
L 41.052252 345.6 
L 41.513514 345.6 
L 41.974775 345.6 
L 42.436036 345.6 
L 42.897297 345.6 
L 43.358559 345.6 
L 43.81982 345.6 
L 44.281081 345.6 
L 44.742342 345.6 
L 45.203604 345.6 
L 45.664865 345.6 
L 46.126126 345.6 
L 46.587387 345.6 
L 47.048649 345.6 
L 47.50991 345.6 
L 47.971171 345.6 
L 48.432432 345.6 
L 48.893694 345.6 
L 49.354955 345.6 
L 49.816216 345.6 
L 50.277477 345.6 
L 50.738739 345.6 
L 51.2 345.6 
L 51.661261 345.6 
L 52.122523 345.6 
L 52.583784 345.6 
L 53.045045 345.6 
L 53.506306 345.6 
L 53.967568 345.6 
L 54.428829 345.6 
L 54.89009 345.6 
L 55.351351 345.6 
L 55.812613 345.6 
L 56.273874 345.6 
L 56.735135 345.6 
L 57.196396 345.6 
L 57.657658 345.6 
L 58.118919 345.6 
L 58.58018 345.6 
L 59.041441 345.6 
L 59.502703 345.6 
L 59.963964 345.6 
L 60.425225 345.6 
L 60.886486 345.6 
L 61.347748 345.6 
L 61.809009 345.6 
L 62.27027 345.6 
L 62.731532 345.6 
L 63.192793 345.6 
L 63.654054 345.6 
L 64.115315 345.6 
L 64.576577 345.6 
L 65.037838 345.6 
L 65.499099 345.6 
L 65.96036 345.6 
L 66.421622 345.6 
L 66.882883 345.6 
L 67.344144 345.6 
L 67.805405 345.6 
L 68.266667 345.6 
L 68.727928 345.6 
L 69.189189 345.6 
L 69.65045 345.6 
L 70.111712 345.6 
L 70.572973 345.6 
L 71.034234 345.6 
L 71.495495 345.6 
L 71.956757 345.6 
L 72.418018 345.6 
L 72.879279 345.6 
L 73.340541 345.6 
L 73.801802 345.6 
L 74.263063 345.6 
L 74.724324 345.6 
L 75.185586 345.6 
L 75.646847 345.6 
L 76.108108 345.6 
L 76.569369 345.6 
L 77.030631 345.6 
L 77.491892 345.6 
L 77.953153 345.6 
L 78.414414 345.6 
L 78.875676 345.6 
L 79.336937 345.6 
L 79.798198 345.6 
L 80.259459 345.6 
L 80.720721 345.6 
L 81.181982 345.6 
L 81.643243 345.6 
L 82.104505 345.6 
L 82.565766 345.6 
L 83.027027 345.6 
L 83.488288 345.6 
L 83.94955 345.6 
L 84.410811 345.6 
L 84.872072 345.6 
L 85.333333 345.6 
L 85.794595 345.6 
L 86.255856 345.6 
L 86.717117 345.6 
L 87.178378 345.6 
L 87.63964 345.6 
L 88.100901 345.6 
L 88.562162 345.6 
L 89.023423 345.6 
L 89.484685 345.6 
L 89.945946 345.6 
L 90.407207 345.6 
L 90.868468 345.6 
L 91.32973 345.6 
L 91.790991 345.6 
L 92.252252 345.6 
L 92.713514 345.6 
L 93.174775 345.6 
L 93.636036 345.6 
L 94.097297 345.6 
L 94.558559 345.6 
L 95.01982 345.6 
L 95.481081 345.6 
L 95.942342 345.6 
L 96.403604 345.6 
L 96.864865 345.6 
L 97.326126 345.6 
L 97.787387 345.6 
L 98.248649 345.6 
L 98.70991 345.6 
L 99.171171 345.6 
L 99.632432 345.6 
L 100.093694 345.6 
L 100.554955 345.6 
L 101.016216 345.6 
L 101.477477 345.6 
L 101.938739 345.6 
L 102.4 345.6 
L 102.861261 345.6 
L 103.322523 345.6 
L 103.783784 345.6 
L 104.245045 345.6 
L 104.706306 345.6 
L 105.167568 345.6 
L 105.628829 345.6 
L 106.09009 345.6 
L 106.551351 345.6 
L 107.012613 345.6 
L 107.473874 345.6 
L 107.935135 345.6 
L 108.396396 345.6 
L 108.857658 345.6 
L 109.318919 345.6 
L 109.78018 345.6 
L 110.241441 345.6 
L 110.702703 345.6 
L 111.163964 345.6 
L 111.625225 345.6 
L 112.086486 345.6 
L 112.547748 345.6 
L 113.009009 345.6 
L 113.47027 345.6 
L 113.931532 345.6 
L 114.392793 345.6 
L 114.854054 345.6 
L 115.315315 345.6 
L 115.776577 345.6 
L 116.237838 345.6 
L 116.699099 345.6 
L 117.16036 345.6 
L 117.621622 345.6 
L 118.082883 345.6 
L 118.544144 345.6 
L 119.005405 345.6 
L 119.466667 345.6 
L 119.927928 345.6 
L 120.389189 345.6 
L 120.85045 345.6 
L 121.311712 345.6 
L 121.772973 345.6 
L 122.234234 345.6 
L 122.695495 345.6 
L 123.156757 345.6 
L 123.618018 345.6 
L 124.079279 345.6 
L 124.540541 345.6 
L 125.001802 345.6 
L 125.463063 345.6 
L 125.924324 345.6 
L 126.385586 345.6 
L 126.846847 345.6 
L 127.308108 345.6 
L 127.769369 345.6 
L 128.230631 345.6 
L 128.691892 345.6 
L 129.153153 345.6 
L 129.614414 345.6 
L 130.075676 345.6 
L 130.536937 345.6 
L 130.998198 345.6 
L 131.459459 345.6 
L 131.920721 345.6 
L 132.381982 345.6 
L 132.843243 345.6 
L 133.304505 345.6 
L 133.765766 345.6 
L 134.227027 345.6 
L 134.688288 345.6 
L 135.14955 345.6 
L 135.610811 345.6 
L 136.072072 345.6 
L 136.533333 345.6 
L 136.994595 345.6 
L 137.455856 345.6 
L 137.917117 345.6 
L 138.378378 345.6 
L 138.83964 345.6 
L 139.300901 345.6 
L 139.762162 345.6 
L 140.223423 345.6 
L 140.684685 345.6 
L 141.145946 345.6 
L 141.607207 345.6 
L 142.068468 345.6 
L 142.52973 345.6 
L 142.990991 345.6 
L 143.452252 345.6 
L 143.913514 345.6 
L 144.374775 345.6 
L 144.836036 345.6 
L 145.297297 345.6 
L 145.758559 345.6 
L 146.21982 345.6 
L 146.681081 345.6 
L 147.142342 345.6 
L 147.603604 345.6 
L 148.064865 345.6 
L 148.526126 345.6 
L 148.987387 345.6 
L 149.448649 345.6 
L 149.90991 345.6 
L 150.371171 345.6 
L 150.832432 345.6 
L 151.293694 345.6 
L 151.754955 345.6 
L 152.216216 345.6 
L 152.677477 345.6 
L 153.138739 345.6 
L 153.6 345.6 
L 154.061261 345.6 
L 154.522523 345.6 
L 154.983784 345.6 
L 155.445045 345.6 
L 155.906306 345.6 
L 156.367568 345.6 
L 156.828829 345.6 
L 157.29009 345.6 
L 157.751351 345.6 
L 158.212613 345.6 
L 158.673874 345.6 
L 159.135135 345.6 
L 159.596396 345.6 
L 160.057658 345.6 
L 160.518919 345.6 
L 160.98018 345.6 
L 161.441441 345.6 
L 161.902703 345.6 
L 162.363964 345.6 
L 162.825225 345.6 
L 163.286486 345.6 
L 163.747748 345.6 
L 164.209009 345.6 
L 164.67027 345.6 
L 165.131532 345.6 
L 165.592793 345.6 
L 166.054054 345.6 
L 166.515315 345.6 
L 166.976577 345.6 
L 167.437838 345.6 
L 167.899099 345.6 
L 168.36036 345.6 
L 168.821622 345.6 
L 169.282883 345.6 
L 169.744144 345.6 
L 170.205405 345.6 
L 170.666667 345.6 
L 171.127928 345.6 
L 171.589189 345.6 
L 172.05045 345.6 
L 172.511712 345.6 
L 172.972973 345.6 
L 173.434234 345.6 
L 173.895495 345.6 
L 174.356757 345.6 
L 174.818018 345.6 
L 175.279279 345.6 
L 175.740541 345.6 
L 176.201802 345.6 
L 176.663063 345.6 
L 177.124324 345.6 
L 177.585586 345.6 
L 178.046847 345.6 
L 178.508108 345.6 
L 178.969369 345.6 
L 179.430631 345.6 
L 179.891892 345.6 
L 180.353153 345.6 
L 180.814414 345.6 
L 181.275676 345.6 
L 181.736937 345.6 
L 182.198198 345.6 
L 182.659459 345.6 
L 183.120721 345.6 
L 183.581982 345.6 
L 184.043243 345.6 
L 184.504505 345.6 
L 184.965766 345.6 
L 185.427027 345.6 
L 185.888288 345.6 
L 186.34955 345.6 
L 186.810811 345.6 
L 187.272072 345.6 
L 186.810811 299.519259 
L 186.34955 299.517739 
L 185.888288 299.515436 
L 185.427027 299.512348 
L 184.965766 299.508474 
L 184.504505 299.50381 
L 184.043243 299.498356 
L 183.581982 299.492108 
L 183.120721 299.485065 
L 182.659459 299.477225 
L 182.198198 299.468587 
L 181.736937 299.459149 
L 181.275676 299.44891 
L 180.814414 299.437868 
L 180.353153 299.426021 
L 179.891892 299.41337 
L 179.430631 299.399913 
L 178.969369 299.385648 
L 178.508108 299.370576 
L 178.046847 299.354695 
L 177.585586 299.338006 
L 177.124324 299.320506 
L 176.663063 299.302197 
L 176.201802 299.283077 
L 175.740541 299.263147 
L 175.279279 299.242406 
L 174.818018 299.220856 
L 174.356757 299.198495 
L 173.895495 299.175324 
L 173.434234 299.151343 
L 172.972973 299.126554 
L 172.511712 299.100956 
L 172.05045 299.07455 
L 171.589189 299.047338 
L 171.127928 299.01932 
L 170.666667 298.990497 
L 170.205405 298.96087 
L 169.744144 298.930441 
L 169.282883 298.89921 
L 168.821622 298.86718 
L 168.36036 298.834353 
L 167.899099 298.800728 
L 167.437838 298.76631 
L 166.976577 298.731099 
L 166.515315 298.695097 
L 166.054054 298.658307 
L 165.592793 298.620731 
L 165.131532 298.582371 
L 164.67027 298.54323 
L 164.209009 298.50331 
L 163.747748 298.462614 
L 163.286486 298.421145 
L 162.825225 298.378905 
L 162.363964 298.335898 
L 161.902703 298.292127 
L 161.441441 298.247594 
L 160.98018 298.202304 
L 160.518919 298.15626 
L 160.057658 298.109464 
L 159.596396 298.061922 
L 159.135135 298.013636 
L 158.673874 297.96461 
L 158.212613 297.914849 
L 157.751351 297.864356 
L 157.29009 297.813136 
L 156.828829 297.761192 
L 156.367568 297.708529 
L 155.906306 297.655152 
L 155.445045 297.601065 
L 154.983784 297.546273 
L 154.522523 297.49078 
L 154.061261 297.434592 
L 153.6 297.377712 
L 153.138739 297.320147 
L 152.677477 297.261901 
L 152.216216 297.20298 
L 151.754955 297.143389 
L 151.293694 297.083133 
L 150.832432 297.022219 
L 150.371171 296.96065 
L 149.90991 296.898434 
L 149.448649 296.835575 
L 148.987387 296.772081 
L 148.526126 296.707956 
L 148.064865 296.643207 
L 147.603604 296.57784 
L 147.142342 296.511861 
L 146.681081 296.445277 
L 146.21982 296.378093 
L 145.758559 296.310317 
L 145.297297 296.241955 
L 144.836036 296.173014 
L 144.374775 296.1035 
L 143.913514 296.03342 
L 143.452252 295.962781 
L 142.990991 295.89159 
L 142.52973 295.819854 
L 142.068468 295.747581 
L 141.607207 295.674777 
L 141.145946 295.601449 
L 140.684685 295.527606 
L 140.223423 295.453254 
L 139.762162 295.378401 
L 139.300901 295.303055 
L 138.83964 295.227223 
L 138.378378 295.150913 
L 137.917117 295.074132 
L 137.455856 294.99689 
L 136.994595 294.919192 
L 136.533333 294.841049 
L 136.072072 294.762466 
L 135.610811 294.683454 
L 135.14955 294.604019 
L 134.688288 294.52417 
L 134.227027 294.443916 
L 133.765766 294.363264 
L 133.304505 294.282223 
L 132.843243 294.200802 
L 132.381982 294.119009 
L 131.920721 294.036853 
L 131.459459 293.954342 
L 130.998198 293.871485 
L 130.536937 293.788291 
L 130.075676 293.704768 
L 129.614414 293.620926 
L 129.153153 293.536772 
L 128.691892 293.452317 
L 128.230631 293.367569 
L 127.769369 293.282537 
L 127.308108 293.19723 
L 126.846847 293.111657 
L 126.385586 293.025828 
L 125.924324 292.939751 
L 125.463063 292.853436 
L 125.001802 292.766891 
L 124.540541 292.680127 
L 124.079279 292.593153 
L 123.618018 292.505977 
L 123.156757 292.41861 
L 122.695495 292.33106 
L 122.234234 292.243337 
L 121.772973 292.155451 
L 121.311712 292.067411 
L 120.85045 291.979226 
L 120.389189 291.890906 
L 119.927928 291.802461 
L 119.466667 291.713899 
L 119.005405 291.625232 
L 118.544144 291.536467 
L 118.082883 291.447616 
L 117.621622 291.358687 
L 117.16036 291.26969 
L 116.699099 291.180635 
L 116.237838 291.091532 
L 115.776577 291.002389 
L 115.315315 290.913218 
L 114.854054 290.824026 
L 114.392793 290.734825 
L 113.931532 290.645624 
L 113.47027 290.556433 
L 113.009009 290.46726 
L 112.547748 290.378117 
L 112.086486 290.289012 
L 111.625225 290.199956 
L 111.163964 290.110957 
L 110.702703 290.022026 
L 110.241441 289.933173 
L 109.78018 289.844406 
L 109.318919 289.755737 
L 108.857658 289.667173 
L 108.396396 289.578726 
L 107.935135 289.490404 
L 107.473874 289.402217 
L 107.012613 289.314175 
L 106.551351 289.226287 
L 106.09009 289.138563 
L 105.628829 289.051013 
L 105.167568 288.963645 
L 104.706306 288.876469 
L 104.245045 288.789496 
L 103.783784 288.702733 
L 103.322523 288.616192 
L 102.861261 288.52988 
L 102.4 288.443807 
L 101.938739 288.357983 
L 101.477477 288.272417 
L 101.016216 288.187118 
L 100.554955 288.102096 
L 100.093694 288.017358 
L 99.632432 287.932916 
L 99.171171 287.848777 
L 98.70991 287.764951 
L 98.248649 287.681447 
L 97.787387 287.598274 
L 97.326126 287.51544 
L 96.864865 287.432955 
L 96.403604 287.350827 
L 95.942342 287.269065 
L 95.481081 287.187679 
L 95.01982 287.106675 
L 94.558559 287.026065 
L 94.097297 286.945854 
L 93.636036 286.866053 
L 93.174775 286.78667 
L 92.713514 286.707713 
L 92.252252 286.629191 
L 91.790991 286.551111 
L 91.32973 286.473483 
L 90.868468 286.396314 
L 90.407207 286.319612 
L 89.945946 286.243385 
L 89.484685 286.167642 
L 89.023423 286.092391 
L 88.562162 286.017638 
L 88.100901 285.943393 
L 87.63964 285.869662 
L 87.178378 285.796453 
L 86.717117 285.723774 
L 86.255856 285.651633 
L 85.794595 285.580036 
L 85.333333 285.508992 
L 84.872072 285.438507 
L 84.410811 285.368589 
L 83.94955 285.299245 
L 83.488288 285.230482 
L 83.027027 285.162306 
L 82.565766 285.094725 
L 82.104505 285.027746 
L 81.643243 284.961375 
L 81.181982 284.895619 
L 80.720721 284.830484 
L 80.259459 284.765978 
L 79.798198 284.702105 
L 79.336937 284.638874 
L 78.875676 284.576289 
L 78.414414 284.514358 
L 77.953153 284.453085 
L 77.491892 284.392478 
L 77.030631 284.332541 
L 76.569369 284.273281 
L 76.108108 284.214704 
L 75.646847 284.156814 
L 75.185586 284.099618 
L 74.724324 284.043121 
L 74.263063 283.987328 
L 73.801802 283.932245 
L 73.340541 283.877876 
L 72.879279 283.824226 
L 72.418018 283.771301 
L 71.956757 283.719106 
L 71.495495 283.667644 
L 71.034234 283.616921 
L 70.572973 283.566941 
L 70.111712 283.517709 
L 69.65045 283.469229 
L 69.189189 283.421505 
L 68.727928 283.374541 
L 68.266667 283.328342 
L 67.805405 283.28291 
L 67.344144 283.238251 
L 66.882883 283.194368 
L 66.421622 283.151264 
L 65.96036 283.108943 
L 65.499099 283.067408 
L 65.037838 283.026663 
L 64.576577 282.98671 
L 64.115315 282.947554 
L 63.654054 282.909196 
L 63.192793 282.87164 
L 62.731532 282.834888 
L 62.27027 282.798943 
L 61.809009 282.763808 
L 61.347748 282.729486 
L 60.886486 282.695977 
L 60.425225 282.663285 
L 59.963964 282.631412 
L 59.502703 282.600359 
L 59.041441 282.570129 
L 58.58018 282.540724 
L 58.118919 282.512144 
L 57.657658 282.484392 
L 57.196396 282.457469 
L 56.735135 282.431377 
L 56.273874 282.406116 
L 55.812613 282.381688 
L 55.351351 282.358093 
L 54.89009 282.335333 
L 54.428829 282.313409 
L 53.967568 282.292321 
L 53.506306 282.272069 
L 53.045045 282.252654 
L 52.583784 282.234077 
L 52.122523 282.216338 
L 51.661261 282.199436 
L 51.2 282.183372 
L 50.738739 282.168146 
L 50.277477 282.153758 
L 49.816216 282.140206 
L 49.354955 282.127492 
L 48.893694 282.115613 
L 48.432432 282.10457 
L 47.971171 282.094362 
L 47.50991 282.084988 
L 47.048649 282.076447 
L 46.587387 282.068738 
L 46.126126 282.06186 
L 45.664865 282.055811 
L 45.203604 282.05059 
L 44.742342 282.046195 
L 44.281081 282.042626 
L 43.81982 282.039879 
L 43.358559 282.037954 
L 42.897297 282.036848 
L 42.436036 282.036559 
L 41.974775 282.037086 
L 41.513514 282.038426 
L 41.052252 282.040576 
L 40.590991 282.043534 
L 40.12973 282.047298 
L 39.668468 282.051864 
L 39.207207 282.057231 
L 38.745946 282.063395 
L 38.284685 282.070353 
L 37.823423 282.078102 
L 37.362162 282.086639 
L 36.900901 282.095961 
L 36.43964 282.106065 
L 35.978378 282.116946 
L 35.517117 282.128601 
L 35.055856 282.141027 
L 34.594595 282.15422 
L 34.133333 282.168176 
L 33.672072 282.182891 
L 33.210811 282.198361 
L 32.74955 282.214581 
L 32.288288 282.231549 
L 31.827027 282.249258 
L 31.365766 282.267706 
L 30.904505 282.286887 
L 30.443243 282.306796 
L 29.981982 282.32743 
L 29.520721 282.348783 
L 29.059459 282.37085 
L 28.598198 282.393627 
L 28.136937 282.417108 
L 27.675676 282.441288 
L 27.214414 282.466163 
L 26.753153 282.491726 
L 26.291892 282.517973 
L 25.830631 282.544898 
L 25.369369 282.572495 
L 24.908108 282.600759 
L 24.446847 282.629684 
L 23.985586 282.659264 
L 23.524324 282.689494 
L 23.063063 282.720368 
L 22.601802 282.751879 
L 22.140541 282.784021 
L 21.679279 282.816789 
L 21.218018 282.850176 
L 20.756757 282.884176 
L 20.295495 282.918782 
L 19.834234 282.953989 
L 19.372973 282.989789 
L 18.911712 283.026176 
L 18.45045 283.063143 
L 17.989189 283.100684 
L 17.527928 283.138792 
L 17.066667 283.17746 
L 16.605405 283.216681 
L 16.144144 283.256449 
L 15.682883 283.296756 
L 15.221622 283.337595 
L 14.76036 283.378959 
L 14.299099 283.420841 
L 13.837838 283.463234 
L 13.376577 283.50613 
L 12.915315 283.549523 
L 12.454054 283.593404 
L 11.992793 283.637767 
L 11.531532 283.682603 
L 11.07027 283.727906 
L 10.609009 283.773667 
L 10.147748 283.81988 
L 9.686486 283.866536 
L 9.225225 283.913628 
L 8.763964 283.961148 
L 8.302703 284.009088 
L 7.841441 284.05744 
L 7.38018 284.106198 
L 6.918919 284.155351 
L 6.457658 284.204894 
L 5.996396 284.254817 
L 5.535135 284.305114 
L 5.073874 284.355775 
L 4.612613 284.406792 
L 4.151351 284.458159 
L 3.69009 284.509866 
L 3.228829 284.561905 
L 2.767568 284.614269 
L 2.306306 284.666948 
L 1.845045 284.719936 
L 1.383784 284.773223 
L 0.922523 284.826801 
L 0.461261 284.880663 
L 0 284.934799 
z
" clip-path="url(#pc3a77dafb5)" style="fill: #145369; stroke: #145369"/>
    <path d="M 187.272072 345.6 
L 187.733333 345.6 
L 188.194595 345.6 
L 188.655856 345.6 
L 189.117117 345.6 
L 189.578378 345.6 
L 190.03964 345.6 
L 190.500901 345.6 
L 190.962162 345.6 
L 191.423423 345.6 
L 191.884685 345.6 
L 192.345946 345.6 
L 192.807207 345.6 
L 193.268468 345.6 
L 193.72973 345.6 
L 194.190991 345.6 
L 194.652252 345.6 
L 195.113514 345.6 
L 195.574775 345.6 
L 196.036036 345.6 
L 196.497297 345.6 
L 196.958559 345.6 
L 197.41982 345.6 
L 197.881081 345.6 
L 198.342342 345.6 
L 198.803604 345.6 
L 199.264865 345.6 
L 199.726126 345.6 
L 200.187387 345.6 
L 200.648649 345.6 
L 201.10991 345.6 
L 201.571171 345.6 
L 202.032432 345.6 
L 202.493694 345.6 
L 202.954955 345.6 
L 203.416216 345.6 
L 203.877477 345.6 
L 204.338739 345.6 
L 204.8 345.6 
L 205.261261 345.6 
L 205.722523 345.6 
L 206.183784 345.6 
L 206.645045 345.6 
L 207.106306 345.6 
L 207.567568 345.6 
L 208.028829 345.6 
L 208.49009 345.6 
L 208.951351 345.6 
L 209.412613 345.6 
L 209.873874 345.6 
L 210.335135 345.6 
L 210.796396 345.6 
L 211.257658 345.6 
L 211.718919 345.6 
L 212.18018 345.6 
L 212.641441 345.6 
L 213.102703 345.6 
L 213.563964 345.6 
L 214.025225 345.6 
L 214.486486 345.6 
L 214.947748 345.6 
L 215.409009 345.6 
L 215.87027 345.6 
L 216.331532 345.6 
L 216.792793 345.6 
L 217.254054 345.6 
L 217.715315 345.6 
L 218.176577 345.6 
L 218.637838 345.6 
L 219.099099 345.6 
L 219.56036 345.6 
L 220.021622 345.6 
L 220.482883 345.6 
L 220.944144 345.6 
L 221.405405 345.6 
L 221.866667 345.6 
L 222.327928 345.6 
L 222.789189 345.6 
L 223.25045 345.6 
L 223.711712 345.6 
L 224.172973 345.6 
L 224.634234 345.6 
L 225.095495 345.6 
L 225.556757 345.6 
L 226.018018 345.6 
L 226.479279 345.6 
L 226.940541 345.6 
L 227.401802 345.6 
L 227.863063 345.6 
L 228.324324 345.6 
L 228.785586 345.6 
L 229.246847 345.6 
L 229.708108 345.6 
L 230.169369 345.6 
L 230.630631 345.6 
L 231.091892 345.6 
L 231.553153 345.6 
L 232.014414 345.6 
L 232.475676 345.6 
L 232.936937 345.6 
L 233.398198 345.6 
L 233.859459 345.6 
L 234.320721 345.6 
L 234.781982 345.6 
L 235.243243 345.6 
L 235.704505 345.6 
L 236.165766 345.6 
L 236.627027 345.6 
L 237.088288 345.6 
L 237.54955 345.6 
L 238.010811 345.6 
L 238.472072 345.6 
L 238.933333 345.6 
L 239.394595 345.6 
L 239.855856 345.6 
L 240.317117 345.6 
L 240.778378 345.6 
L 241.23964 345.6 
L 241.700901 345.6 
L 242.162162 345.6 
L 242.623423 345.6 
L 243.084685 345.6 
L 243.545946 345.6 
L 244.007207 345.6 
L 244.468468 345.6 
L 244.92973 345.6 
L 245.390991 345.6 
L 245.852252 345.6 
L 246.313514 345.6 
L 246.774775 345.6 
L 247.236036 345.6 
L 247.697297 345.6 
L 248.158559 345.6 
L 248.61982 345.6 
L 249.081081 345.6 
L 249.542342 345.6 
L 250.003604 345.6 
L 250.464865 345.6 
L 250.926126 345.6 
L 251.387387 345.6 
L 251.848649 345.6 
L 252.30991 345.6 
L 252.771171 345.6 
L 253.232432 345.6 
L 253.693694 345.6 
L 254.154955 345.6 
L 254.616216 345.6 
L 255.077477 345.6 
L 255.538739 345.6 
L 256 345.6 
L 256.461261 345.6 
L 256.922523 345.6 
L 257.383784 345.6 
L 257.845045 345.6 
L 258.306306 345.6 
L 258.767568 345.6 
L 259.228829 345.6 
L 259.69009 345.6 
L 260.151351 345.6 
L 260.612613 345.6 
L 261.073874 345.6 
L 261.535135 345.6 
L 261.996396 345.6 
L 262.457658 345.6 
L 262.918919 345.6 
L 263.38018 345.6 
L 263.841441 345.6 
L 264.302703 345.6 
L 264.763964 345.6 
L 265.225225 345.6 
L 265.686486 345.6 
L 266.147748 345.6 
L 266.609009 345.6 
L 267.07027 345.6 
L 267.531532 345.6 
L 267.992793 345.6 
L 268.454054 345.6 
L 268.915315 345.6 
L 269.376577 345.6 
L 269.837838 345.6 
L 270.299099 345.6 
L 270.76036 345.6 
L 271.221622 345.6 
L 271.682883 345.6 
L 272.144144 345.6 
L 272.605405 345.6 
L 273.066667 345.6 
L 273.527928 345.6 
L 273.989189 345.6 
L 274.45045 345.6 
L 274.911712 345.6 
L 275.372973 345.6 
L 275.834234 345.6 
L 276.295495 345.6 
L 276.756757 345.6 
L 277.218018 345.6 
L 277.679279 345.6 
L 278.140541 345.6 
L 278.601802 345.6 
L 279.063063 345.6 
L 279.524324 345.6 
L 279.985586 345.6 
L 280.446847 345.6 
L 280.908108 345.6 
L 281.369369 345.6 
L 281.830631 345.6 
L 282.291892 345.6 
L 282.753153 345.6 
L 283.214414 345.6 
L 283.675676 345.6 
L 284.136937 345.6 
L 284.598198 345.6 
L 285.059459 345.6 
L 285.520721 345.6 
L 285.981982 345.6 
L 286.443243 345.6 
L 286.904505 345.6 
L 287.365766 345.6 
L 287.827027 345.6 
L 288.288288 345.6 
L 288.74955 345.6 
L 289.210811 345.6 
L 289.672072 345.6 
L 290.133333 345.6 
L 290.594595 345.6 
L 291.055856 345.6 
L 291.517117 345.6 
L 291.978378 345.6 
L 292.43964 345.6 
L 292.900901 345.6 
L 293.362162 345.6 
L 293.823423 345.6 
L 294.284685 345.6 
L 294.745946 345.6 
L 295.207207 345.6 
L 295.668468 345.6 
L 296.12973 345.6 
L 296.590991 345.6 
L 297.052252 345.6 
L 297.513514 345.6 
L 297.974775 345.6 
L 298.436036 345.6 
L 298.897297 345.6 
L 299.358559 345.6 
L 299.81982 345.6 
L 300.281081 345.6 
L 300.742342 345.6 
L 301.203604 345.6 
L 301.664865 345.6 
L 302.126126 345.6 
L 302.587387 345.6 
L 303.048649 345.6 
L 303.50991 345.6 
L 303.971171 345.6 
L 304.432432 345.6 
L 304.893694 345.6 
L 305.354955 345.6 
L 305.816216 345.6 
L 306.277477 345.6 
L 306.738739 345.6 
L 307.2 345.6 
L 307.661261 345.6 
L 308.122523 345.6 
L 308.583784 345.6 
L 309.045045 345.6 
L 309.506306 345.6 
L 309.967568 345.6 
L 310.428829 345.6 
L 310.89009 345.6 
L 311.351351 345.6 
L 311.812613 345.6 
L 312.273874 345.6 
L 312.735135 345.6 
L 313.196396 345.6 
L 313.657658 345.6 
L 314.118919 345.6 
L 314.58018 345.6 
L 315.041441 345.6 
L 315.502703 345.6 
L 315.963964 345.6 
L 316.425225 345.6 
L 316.886486 345.6 
L 317.347748 345.6 
L 317.809009 345.6 
L 318.27027 345.6 
L 318.731532 345.6 
L 319.192793 345.6 
L 319.654054 345.6 
L 320.115315 345.6 
L 320.576577 345.6 
L 321.037838 345.6 
L 321.499099 345.6 
L 321.96036 345.6 
L 322.421622 345.6 
L 322.882883 345.6 
L 323.344144 345.6 
L 323.805405 345.6 
L 324.266667 345.6 
L 324.727928 345.6 
L 325.189189 345.6 
L 325.65045 345.6 
L 326.111712 345.6 
L 326.572973 345.6 
L 327.034234 345.6 
L 327.495495 345.6 
L 327.956757 345.6 
L 328.418018 345.6 
L 328.879279 345.6 
L 329.340541 345.6 
L 329.801802 345.6 
L 330.263063 345.6 
L 330.724324 345.6 
L 331.185586 345.6 
L 331.646847 345.6 
L 332.108108 345.6 
L 332.569369 345.6 
L 333.030631 345.6 
L 333.491892 345.6 
L 333.953153 345.6 
L 334.414414 345.6 
L 334.875676 345.6 
L 335.336937 345.6 
L 335.798198 345.6 
L 336.259459 345.6 
L 336.720721 345.6 
L 337.181982 345.6 
L 337.643243 345.6 
L 338.104505 345.6 
L 338.565766 345.6 
L 339.027027 345.6 
L 339.488288 345.6 
L 339.94955 345.6 
L 340.410811 345.6 
L 340.872072 345.6 
L 341.333333 345.6 
L 341.794595 345.6 
L 342.255856 345.6 
L 342.717117 345.6 
L 343.178378 345.6 
L 343.63964 345.6 
L 344.100901 345.6 
L 344.562162 345.6 
L 345.023423 345.6 
L 345.484685 345.6 
L 345.945946 345.6 
L 346.407207 345.6 
L 346.868468 345.6 
L 347.32973 345.6 
L 347.790991 345.6 
L 348.252252 345.6 
L 348.713514 345.6 
L 349.174775 345.6 
L 349.636036 345.6 
L 350.097297 345.6 
L 350.558559 345.6 
L 351.01982 345.6 
L 351.481081 345.6 
L 351.942342 345.6 
L 352.403604 345.6 
L 352.864865 345.6 
L 353.326126 345.6 
L 353.787387 345.6 
L 354.248649 345.6 
L 354.70991 345.6 
L 355.171171 345.6 
L 355.632432 345.6 
L 356.093694 345.6 
L 356.554955 345.6 
L 357.016216 345.6 
L 357.477477 345.6 
L 357.938739 345.6 
L 358.4 345.6 
L 358.861261 345.6 
L 359.322523 345.6 
L 359.783784 345.6 
L 360.245045 345.6 
L 360.706306 345.6 
L 361.167568 345.6 
L 361.628829 345.6 
L 362.09009 345.6 
L 362.551351 345.6 
L 363.012613 345.6 
L 363.473874 345.6 
L 363.935135 345.6 
L 364.396396 345.6 
L 364.857658 345.6 
L 365.318919 345.6 
L 365.78018 345.6 
L 366.241441 345.6 
L 366.702703 345.6 
L 367.163964 345.6 
L 367.625225 345.6 
L 368.086486 345.6 
L 368.547748 345.6 
L 369.009009 345.6 
L 369.47027 345.6 
L 369.931532 345.6 
L 370.392793 345.6 
L 370.854054 345.6 
L 371.315315 345.6 
L 371.776577 345.6 
L 372.237838 345.6 
L 372.699099 345.6 
L 373.16036 345.6 
L 373.621622 345.6 
L 374.082883 345.6 
L 374.544144 345.6 
L 375.005405 345.6 
L 375.466667 345.6 
L 375.927928 345.6 
L 376.389189 345.6 
L 376.85045 345.6 
L 377.311712 345.6 
L 377.772973 345.6 
L 378.234234 345.6 
L 378.695495 345.6 
L 379.156757 345.6 
L 379.618018 345.6 
L 380.079279 345.6 
L 380.540541 345.6 
L 381.001802 345.6 
L 381.463063 345.6 
L 381.924324 345.6 
L 382.385586 345.6 
L 382.846847 345.6 
L 383.308108 345.6 
L 383.769369 345.6 
L 384.230631 345.6 
L 384.691892 345.6 
L 385.153153 345.6 
L 385.614414 345.6 
L 386.075676 345.6 
L 386.536937 345.6 
L 386.998198 345.6 
L 387.459459 345.6 
L 387.920721 345.6 
L 388.381982 345.6 
L 388.843243 345.6 
L 389.304505 345.6 
L 389.765766 345.6 
L 390.227027 345.6 
L 390.688288 345.6 
L 391.14955 345.6 
L 391.610811 345.6 
L 392.072072 345.6 
L 392.533333 345.6 
L 392.994595 345.6 
L 393.455856 345.6 
L 393.917117 345.6 
L 394.378378 345.6 
L 394.83964 345.6 
L 395.300901 345.6 
L 395.762162 345.6 
L 396.223423 345.6 
L 396.684685 345.6 
L 397.145946 345.6 
L 397.607207 345.6 
L 398.068468 345.6 
L 398.52973 345.6 
L 398.990991 345.6 
L 399.452252 345.6 
L 399.913514 345.6 
L 400.374775 345.6 
L 400.836036 345.6 
L 401.297297 345.6 
L 401.758559 345.6 
L 402.21982 345.6 
L 402.681081 345.6 
L 403.142342 345.6 
L 403.603604 345.6 
L 404.064865 345.6 
L 404.526126 345.6 
L 404.987387 345.6 
L 405.448649 345.6 
L 405.90991 345.6 
L 406.371171 345.6 
L 406.832432 345.6 
L 407.293694 345.6 
L 407.754955 345.6 
L 408.216216 345.6 
L 408.677477 345.6 
L 409.138739 345.6 
L 409.6 345.6 
L 410.061261 345.6 
L 410.522523 345.6 
L 410.983784 345.6 
L 411.445045 345.6 
L 411.906306 345.6 
L 412.367568 345.6 
L 412.828829 345.6 
L 413.29009 345.6 
L 413.751351 345.6 
L 414.212613 345.6 
L 414.673874 345.6 
L 415.135135 345.6 
L 415.596396 345.6 
L 416.057658 345.6 
L 416.518919 345.6 
L 416.98018 345.6 
L 417.441441 345.6 
L 417.902703 345.6 
L 418.363964 345.6 
L 418.825225 345.6 
L 419.286486 345.6 
L 419.747748 345.6 
L 420.209009 345.6 
L 420.67027 345.6 
L 421.131532 345.6 
L 421.592793 345.6 
L 422.054054 345.6 
L 422.515315 345.6 
L 422.976577 345.6 
L 423.437838 345.6 
L 423.899099 345.6 
L 424.36036 345.6 
L 424.821622 345.6 
L 425.282883 345.6 
L 425.744144 345.6 
L 426.205405 345.6 
L 426.666667 345.6 
L 427.127928 345.6 
L 427.589189 345.6 
L 428.05045 345.6 
L 428.511712 345.6 
L 428.972973 345.6 
L 429.434234 345.6 
L 429.895495 345.6 
L 430.356757 345.6 
L 430.818018 345.6 
L 431.279279 345.6 
L 431.740541 345.6 
L 432.201802 345.6 
L 432.663063 345.6 
L 433.124324 345.6 
L 433.585586 345.6 
L 434.046847 345.6 
L 434.508108 345.6 
L 434.969369 345.6 
L 435.430631 345.6 
L 435.891892 345.6 
L 436.353153 345.6 
L 436.814414 345.6 
L 437.275676 345.6 
L 437.736937 345.6 
L 438.198198 345.6 
L 438.659459 345.6 
L 439.120721 345.6 
L 439.581982 345.6 
L 440.043243 345.6 
L 440.504505 345.6 
L 440.965766 345.6 
L 441.427027 345.6 
L 441.888288 345.6 
L 442.34955 345.6 
L 442.810811 345.6 
L 443.272072 345.6 
L 443.733333 345.6 
L 444.194595 345.6 
L 444.655856 345.6 
L 445.117117 345.6 
L 445.578378 345.6 
L 446.03964 345.6 
L 446.500901 345.6 
L 446.962162 345.6 
L 447.423423 345.6 
L 447.884685 345.6 
L 448.345946 345.6 
L 448.807207 345.6 
L 449.268468 345.6 
L 449.72973 345.6 
L 450.190991 345.6 
L 450.652252 345.6 
L 451.113514 345.6 
L 451.574775 345.6 
L 452.036036 345.6 
L 452.497297 345.6 
L 452.958559 345.6 
L 453.41982 345.6 
L 453.881081 345.6 
L 454.342342 345.6 
L 454.803604 345.6 
L 455.264865 345.6 
L 455.726126 345.6 
L 456.187387 345.6 
L 456.648649 345.6 
L 457.10991 345.6 
L 457.571171 345.6 
L 458.032432 345.6 
L 458.493694 345.6 
L 458.954955 345.6 
L 459.416216 345.6 
L 459.877477 345.6 
L 460.338739 345.6 
L 460.8 345.6 
L 460.8 345.6 
L 460.8 284.934799 
L 460.338739 284.989202 
L 459.877477 285.043863 
L 459.416216 285.098774 
L 458.954955 285.153926 
L 458.493694 285.209312 
L 458.032432 285.264922 
L 457.571171 285.320749 
L 457.10991 285.376784 
L 456.648649 285.433019 
L 456.187387 285.489445 
L 455.726126 285.546054 
L 455.264865 285.602837 
L 454.803604 285.659787 
L 454.342342 285.716895 
L 453.881081 285.774152 
L 453.41982 285.83155 
L 452.958559 285.88908 
L 452.497297 285.946735 
L 452.036036 286.004506 
L 451.574775 286.062385 
L 451.113514 286.120363 
L 450.652252 286.178432 
L 450.190991 286.236583 
L 449.72973 286.294809 
L 449.268468 286.353101 
L 448.807207 286.41145 
L 448.345946 286.469849 
L 447.884685 286.52829 
L 447.423423 286.586763 
L 446.962162 286.645261 
L 446.500901 286.703777 
L 446.03964 286.7623 
L 445.578378 286.820825 
L 445.117117 286.879341 
L 444.655856 286.937842 
L 444.194595 286.99632 
L 443.733333 287.054765 
L 443.272072 287.113171 
L 442.810811 287.17153 
L 442.34955 287.229832 
L 441.888288 287.288072 
L 441.427027 287.34624 
L 440.965766 287.40433 
L 440.504505 287.462332 
L 440.043243 287.520241 
L 439.581982 287.578047 
L 439.120721 287.635743 
L 438.659459 287.693322 
L 438.198198 287.750777 
L 437.736937 287.808099 
L 437.275676 287.865281 
L 436.814414 287.922316 
L 436.353153 287.979196 
L 435.891892 288.035915 
L 435.430631 288.092464 
L 434.969369 288.148838 
L 434.508108 288.205027 
L 434.046847 288.261027 
L 433.585586 288.316828 
L 433.124324 288.372425 
L 432.663063 288.427811 
L 432.201802 288.482979 
L 431.740541 288.537921 
L 431.279279 288.592632 
L 430.818018 288.647104 
L 430.356757 288.701331 
L 429.895495 288.755306 
L 429.434234 288.809023 
L 428.972973 288.862475 
L 428.511712 288.915657 
L 428.05045 288.968561 
L 427.589189 289.021182 
L 427.127928 289.073513 
L 426.666667 289.125549 
L 426.205405 289.177283 
L 425.744144 289.228709 
L 425.282883 289.279822 
L 424.821622 289.330615 
L 424.36036 289.381084 
L 423.899099 289.431222 
L 423.437838 289.481024 
L 422.976577 289.530484 
L 422.515315 289.579597 
L 422.054054 289.628357 
L 421.592793 289.67676 
L 421.131532 289.7248 
L 420.67027 289.772472 
L 420.209009 289.819771 
L 419.747748 289.866692 
L 419.286486 289.913231 
L 418.825225 289.959382 
L 418.363964 290.005141 
L 417.902703 290.050503 
L 417.441441 290.095463 
L 416.98018 290.140018 
L 416.518919 290.184163 
L 416.057658 290.227894 
L 415.596396 290.271206 
L 415.135135 290.314096 
L 414.673874 290.356559 
L 414.212613 290.398591 
L 413.751351 290.44019 
L 413.29009 290.48135 
L 412.828829 290.522069 
L 412.367568 290.562343 
L 411.906306 290.602168 
L 411.445045 290.641541 
L 410.983784 290.680459 
L 410.522523 290.718919 
L 410.061261 290.756917 
L 409.6 290.794451 
L 409.138739 290.831517 
L 408.677477 290.868113 
L 408.216216 290.904237 
L 407.754955 290.939885 
L 407.293694 290.975055 
L 406.832432 291.009745 
L 406.371171 291.043952 
L 405.90991 291.077675 
L 405.448649 291.11091 
L 404.987387 291.143656 
L 404.526126 291.175911 
L 404.064865 291.207674 
L 403.603604 291.238942 
L 403.142342 291.269713 
L 402.681081 291.299987 
L 402.21982 291.329762 
L 401.758559 291.359036 
L 401.297297 291.387809 
L 400.836036 291.416078 
L 400.374775 291.443843 
L 399.913514 291.471104 
L 399.452252 291.497858 
L 398.990991 291.524106 
L 398.52973 291.549846 
L 398.068468 291.575079 
L 397.607207 291.599803 
L 397.145946 291.624019 
L 396.684685 291.647725 
L 396.223423 291.670922 
L 395.762162 291.69361 
L 395.300901 291.715789 
L 394.83964 291.737458 
L 394.378378 291.758619 
L 393.917117 291.779271 
L 393.455856 291.799414 
L 392.994595 291.81905 
L 392.533333 291.838179 
L 392.072072 291.856801 
L 391.610811 291.874917 
L 391.14955 291.892529 
L 390.688288 291.909636 
L 390.227027 291.926241 
L 389.765766 291.942344 
L 389.304505 291.957946 
L 388.843243 291.97305 
L 388.381982 291.987656 
L 387.920721 292.001765 
L 387.459459 292.015381 
L 386.998198 292.028503 
L 386.536937 292.041135 
L 386.075676 292.053277 
L 385.614414 292.064932 
L 385.153153 292.076102 
L 384.691892 292.08679 
L 384.230631 292.096997 
L 383.769369 292.106725 
L 383.308108 292.115978 
L 382.846847 292.124758 
L 382.385586 292.133066 
L 381.924324 292.140907 
L 381.463063 292.148283 
L 381.001802 292.155196 
L 380.540541 292.16165 
L 380.079279 292.167647 
L 379.618018 292.173192 
L 379.156757 292.178286 
L 378.695495 292.182933 
L 378.234234 292.187137 
L 377.772973 292.190901 
L 377.311712 292.194229 
L 376.85045 292.197124 
L 376.389189 292.199589 
L 375.927928 292.20163 
L 375.466667 292.203249 
L 375.005405 292.20445 
L 374.544144 292.205237 
L 374.082883 292.205615 
L 373.621622 292.205588 
L 373.16036 292.205159 
L 372.699099 292.204333 
L 372.237838 292.203115 
L 371.776577 292.201508 
L 371.315315 292.199518 
L 370.854054 292.197149 
L 370.392793 292.194405 
L 369.931532 292.191292 
L 369.47027 292.187813 
L 369.009009 292.183974 
L 368.547748 292.17978 
L 368.086486 292.175236 
L 367.625225 292.170346 
L 367.163964 292.165116 
L 366.702703 292.159551 
L 366.241441 292.153656 
L 365.78018 292.147437 
L 365.318919 292.140898 
L 364.857658 292.134045 
L 364.396396 292.126884 
L 363.935135 292.119419 
L 363.473874 292.111657 
L 363.012613 292.103604 
L 362.551351 292.095263 
L 362.09009 292.086643 
L 361.628829 292.077747 
L 361.167568 292.068582 
L 360.706306 292.059155 
L 360.245045 292.049469 
L 359.783784 292.039533 
L 359.322523 292.029351 
L 358.861261 292.018929 
L 358.4 292.008274 
L 357.938739 291.997392 
L 357.477477 291.986288 
L 357.016216 291.97497 
L 356.554955 291.963442 
L 356.093694 291.951712 
L 355.632432 291.939786 
L 355.171171 291.92767 
L 354.70991 291.91537 
L 354.248649 291.902893 
L 353.787387 291.890245 
L 353.326126 291.877432 
L 352.864865 291.864462 
L 352.403604 291.85134 
L 351.942342 291.838073 
L 351.481081 291.824667 
L 351.01982 291.81113 
L 350.558559 291.797467 
L 350.097297 291.783686 
L 349.636036 291.769792 
L 349.174775 291.755793 
L 348.713514 291.741695 
L 348.252252 291.727505 
L 347.790991 291.713229 
L 347.32973 291.698875 
L 346.868468 291.684448 
L 346.407207 291.669956 
L 345.945946 291.655405 
L 345.484685 291.640802 
L 345.023423 291.626155 
L 344.562162 291.611468 
L 344.100901 291.59675 
L 343.63964 291.582007 
L 343.178378 291.567246 
L 342.717117 291.552473 
L 342.255856 291.537695 
L 341.794595 291.52292 
L 341.333333 291.508153 
L 340.872072 291.493401 
L 340.410811 291.478672 
L 339.94955 291.463972 
L 339.488288 291.449308 
L 339.027027 291.434685 
L 338.565766 291.420112 
L 338.104505 291.405595 
L 337.643243 291.39114 
L 337.181982 291.376755 
L 336.720721 291.362445 
L 336.259459 291.348217 
L 335.798198 291.334078 
L 335.336937 291.320035 
L 334.875676 291.306094 
L 334.414414 291.292262 
L 333.953153 291.278544 
L 333.491892 291.264949 
L 333.030631 291.251482 
L 332.569369 291.238149 
L 332.108108 291.224957 
L 331.646847 291.211913 
L 331.185586 291.199022 
L 330.724324 291.186292 
L 330.263063 291.173728 
L 329.801802 291.161337 
L 329.340541 291.149124 
L 328.879279 291.137097 
L 328.418018 291.12526 
L 327.956757 291.113622 
L 327.495495 291.102186 
L 327.034234 291.09096 
L 326.572973 291.07995 
L 326.111712 291.06916 
L 325.65045 291.058599 
L 325.189189 291.04827 
L 324.727928 291.03818 
L 324.266667 291.028335 
L 323.805405 291.018741 
L 323.344144 291.009403 
L 322.882883 291.000326 
L 322.421622 290.991517 
L 321.96036 290.982981 
L 321.499099 290.974723 
L 321.037838 290.966748 
L 320.576577 290.959063 
L 320.115315 290.951672 
L 319.654054 290.944581 
L 319.192793 290.937795 
L 318.731532 290.931318 
L 318.27027 290.925157 
L 317.809009 290.919315 
L 317.347748 290.913799 
L 316.886486 290.908612 
L 316.425225 290.903759 
L 315.963964 290.899247 
L 315.502703 290.895078 
L 315.041441 290.891258 
L 314.58018 290.88779 
L 314.118919 290.884681 
L 313.657658 290.881934 
L 313.196396 290.879553 
L 312.735135 290.877543 
L 312.273874 290.875907 
L 311.812613 290.874651 
L 311.351351 290.873777 
L 310.89009 290.873291 
L 310.428829 290.873195 
L 309.967568 290.873494 
L 309.506306 290.874192 
L 309.045045 290.875291 
L 308.583784 290.876797 
L 308.122523 290.878711 
L 307.661261 290.881038 
L 307.2 290.883781 
L 306.738739 290.886943 
L 306.277477 290.890528 
L 305.816216 290.894538 
L 305.354955 290.898977 
L 304.893694 290.903847 
L 304.432432 290.909152 
L 303.971171 290.914893 
L 303.50991 290.921075 
L 303.048649 290.927698 
L 302.587387 290.934767 
L 302.126126 290.942282 
L 301.664865 290.950248 
L 301.203604 290.958665 
L 300.742342 290.967536 
L 300.281081 290.976864 
L 299.81982 290.986649 
L 299.358559 290.996894 
L 298.897297 291.007601 
L 298.436036 291.018772 
L 297.974775 291.030407 
L 297.513514 291.04251 
L 297.052252 291.05508 
L 296.590991 291.068119 
L 296.12973 291.081629 
L 295.668468 291.095611 
L 295.207207 291.110065 
L 294.745946 291.124994 
L 294.284685 291.140397 
L 293.823423 291.156275 
L 293.362162 291.172629 
L 292.900901 291.189461 
L 292.43964 291.206769 
L 291.978378 291.224555 
L 291.517117 291.242818 
L 291.055856 291.26156 
L 290.594595 291.28078 
L 290.133333 291.300478 
L 289.672072 291.320655 
L 289.210811 291.341309 
L 288.74955 291.362441 
L 288.288288 291.38405 
L 287.827027 291.406136 
L 287.365766 291.428698 
L 286.904505 291.451736 
L 286.443243 291.475249 
L 285.981982 291.499236 
L 285.520721 291.523696 
L 285.059459 291.548627 
L 284.598198 291.57403 
L 284.136937 291.599903 
L 283.675676 291.626243 
L 283.214414 291.653051 
L 282.753153 291.680324 
L 282.291892 291.70806 
L 281.830631 291.736259 
L 281.369369 291.764918 
L 280.908108 291.794035 
L 280.446847 291.823608 
L 279.985586 291.853636 
L 279.524324 291.884116 
L 279.063063 291.915045 
L 278.601802 291.946422 
L 278.140541 291.978244 
L 277.679279 292.010508 
L 277.218018 292.043211 
L 276.756757 292.076352 
L 276.295495 292.109926 
L 275.834234 292.143932 
L 275.372973 292.178366 
L 274.911712 292.213225 
L 274.45045 292.248505 
L 273.989189 292.284204 
L 273.527928 292.320318 
L 273.066667 292.356844 
L 272.605405 292.393778 
L 272.144144 292.431116 
L 271.682883 292.468854 
L 271.221622 292.50699 
L 270.76036 292.545518 
L 270.299099 292.584435 
L 269.837838 292.623737 
L 269.376577 292.663419 
L 268.915315 292.703478 
L 268.454054 292.743909 
L 267.992793 292.784707 
L 267.531532 292.825868 
L 267.07027 292.867388 
L 266.609009 292.909261 
L 266.147748 292.951483 
L 265.686486 292.994049 
L 265.225225 293.036955 
L 264.763964 293.080195 
L 264.302703 293.123763 
L 263.841441 293.167656 
L 263.38018 293.211867 
L 262.918919 293.256392 
L 262.457658 293.301225 
L 261.996396 293.34636 
L 261.535135 293.391793 
L 261.073874 293.437516 
L 260.612613 293.483526 
L 260.151351 293.529815 
L 259.69009 293.576379 
L 259.228829 293.623211 
L 258.767568 293.670305 
L 258.306306 293.717655 
L 257.845045 293.765255 
L 257.383784 293.8131 
L 256.922523 293.861182 
L 256.461261 293.909496 
L 256 293.958034 
L 255.538739 294.006792 
L 255.077477 294.055762 
L 254.616216 294.104937 
L 254.154955 294.154311 
L 253.693694 294.203878 
L 253.232432 294.253631 
L 252.771171 294.303562 
L 252.30991 294.353666 
L 251.848649 294.403935 
L 251.387387 294.454362 
L 250.926126 294.504941 
L 250.464865 294.555663 
L 250.003604 294.606523 
L 249.542342 294.657513 
L 249.081081 294.708626 
L 248.61982 294.759855 
L 248.158559 294.811191 
L 247.697297 294.862629 
L 247.236036 294.914161 
L 246.774775 294.965779 
L 246.313514 295.017475 
L 245.852252 295.069243 
L 245.390991 295.121075 
L 244.92973 295.172963 
L 244.468468 295.2249 
L 244.007207 295.276877 
L 243.545946 295.328888 
L 243.084685 295.380925 
L 242.623423 295.432979 
L 242.162162 295.485044 
L 241.700901 295.537111 
L 241.23964 295.589172 
L 240.778378 295.64122 
L 240.317117 295.693247 
L 239.855856 295.745245 
L 239.394595 295.797206 
L 238.933333 295.849121 
L 238.472072 295.900984 
L 238.010811 295.952786 
L 237.54955 296.004519 
L 237.088288 296.056175 
L 236.627027 296.107745 
L 236.165766 296.159223 
L 235.704505 296.2106 
L 235.243243 296.261867 
L 234.781982 296.313018 
L 234.320721 296.364043 
L 233.859459 296.414934 
L 233.398198 296.465684 
L 232.936937 296.516284 
L 232.475676 296.566726 
L 232.014414 296.617002 
L 231.553153 296.667105 
L 231.091892 296.717025 
L 230.630631 296.766754 
L 230.169369 296.816286 
L 229.708108 296.86561 
L 229.246847 296.91472 
L 228.785586 296.963607 
L 228.324324 297.012264 
L 227.863063 297.060681 
L 227.401802 297.108851 
L 226.940541 297.156767 
L 226.479279 297.204419 
L 226.018018 297.251799 
L 225.556757 297.298901 
L 225.095495 297.345715 
L 224.634234 297.392234 
L 224.172973 297.43845 
L 223.711712 297.484354 
L 223.25045 297.52994 
L 222.789189 297.575198 
L 222.327928 297.620121 
L 221.866667 297.664702 
L 221.405405 297.708932 
L 220.944144 297.752804 
L 220.482883 297.796309 
L 220.021622 297.839441 
L 219.56036 297.882191 
L 219.099099 297.924551 
L 218.637838 297.966515 
L 218.176577 298.008074 
L 217.715315 298.04922 
L 217.254054 298.089947 
L 216.792793 298.130247 
L 216.331532 298.170112 
L 215.87027 298.209536 
L 215.409009 298.248509 
L 214.947748 298.287026 
L 214.486486 298.325079 
L 214.025225 298.362661 
L 213.563964 298.399764 
L 213.102703 298.436382 
L 212.641441 298.472507 
L 212.18018 298.508132 
L 211.718919 298.54325 
L 211.257658 298.577855 
L 210.796396 298.611939 
L 210.335135 298.645496 
L 209.873874 298.678519 
L 209.412613 298.711001 
L 208.951351 298.742936 
L 208.49009 298.774316 
L 208.028829 298.805136 
L 207.567568 298.835389 
L 207.106306 298.865069 
L 206.645045 298.894169 
L 206.183784 298.922682 
L 205.722523 298.950604 
L 205.261261 298.977927 
L 204.8 299.004646 
L 204.338739 299.030754 
L 203.877477 299.056246 
L 203.416216 299.081116 
L 202.954955 299.105358 
L 202.493694 299.128967 
L 202.032432 299.151936 
L 201.571171 299.17426 
L 201.10991 299.195934 
L 200.648649 299.216952 
L 200.187387 299.237309 
L 199.726126 299.257 
L 199.264865 299.27602 
L 198.803604 299.294363 
L 198.342342 299.312024 
L 197.881081 299.328999 
L 197.41982 299.345283 
L 196.958559 299.360871 
L 196.497297 299.375758 
L 196.036036 299.389941 
L 195.574775 299.403413 
L 195.113514 299.416172 
L 194.652252 299.428212 
L 194.190991 299.439529 
L 193.72973 299.45012 
L 193.268468 299.45998 
L 192.807207 299.469105 
L 192.345946 299.477492 
L 191.884685 299.485137 
L 191.423423 299.492035 
L 190.962162 299.498185 
L 190.500901 299.503581 
L 190.03964 299.508221 
L 189.578378 299.512101 
L 189.117117 299.515218 
L 188.655856 299.51757 
L 188.194595 299.519153 
L 187.733333 299.519964 
z
" clip-path="url(#pc3a77dafb5)" style="fill: #145369; stroke: #145369"/>
   </g>
  </g>
 </g>
 <defs>
  <clipPath id="pc3a77dafb5">
   <rect x="0" y="0" width="460.8" height="345.6"/>
  </clipPath>
 </defs>
</svg>
